<?xml version="1.0" encoding="UTF-8" standalone="no"?><!DOCTYPE svg PUBLIC "-//W3C//DTD SVG 1.1//EN" "http://www.w3.org/Graphics/SVG/1.1/DTD/svg11.dtd"><svg width="100%" height="100%" viewBox="0 0 97 97" version="1.1" xmlns="http://www.w3.org/2000/svg" xmlns:xlink="http://www.w3.org/1999/xlink" xml:space="preserve" xmlns:serif="http://www.serif.com/" style="fill-rule:evenodd;clip-rule:evenodd;stroke-linejoin:round;stroke-miterlimit:2;"><circle cx="48.5" cy="48.5" r="48.5" style="fill:#10aaa8;"/><path d="M82.315,35.285l-0,20.367c-0,-0 -4.349,0.85 -5.248,0.97c-0.898,0.12 -3.69,1.019 -5.726,-0.934c-3.139,-3.067 -14.269,-14.149 -14.269,-14.149c-1.432,-1.164 -3.467,-1.267 -5.008,-0.252c-2.828,1.486 -7.033,3.678 -8.782,4.529c-0.618,0.361 -1.322,0.552 -2.038,0.552c-2.093,-0 -3.857,-1.628 -4.024,-3.715c0.078,-1.579 1.059,-2.98 2.516,-3.594c3.989,-2.396 12.412,-7.189 15.922,-9.01c2.133,-1.198 3.666,-1.198 6.601,1.198c3.606,3.103 6.877,5.823 6.877,5.823c0.784,0.559 1.774,0.747 2.708,0.515c4.037,-0.839 10.471,-2.3 10.471,-2.3Zm-44.328,34.408c0.197,-0.453 0.299,-0.942 0.299,-1.436c-0,-1.972 -1.623,-3.594 -3.594,-3.594c-0.324,-0 -0.646,0.044 -0.959,0.13c0.404,-1.247 0.111,-2.62 -0.766,-3.594c-0.955,-0.911 -2.323,-1.253 -3.594,-0.899c0.4,-1.249 0.103,-2.622 -0.779,-3.594c-1.605,-1.482 -4.134,-1.412 -5.655,0.156c-1.653,1.581 -2.72,4.457 -1.198,6.158c1.521,1.701 3.163,0.659 4.457,0.359c-0.36,1.282 -1.438,2.48 -0.108,4.158c1.33,1.677 3.163,0.659 4.457,0.359c-0.36,1.282 -1.39,2.588 -0.12,4.145c1.27,1.558 3.402,0.731 4.792,0.3c-0.539,1.378 -1.689,2.863 -0.216,4.54c1.474,1.678 4.889,0.899 6.554,-0.694c1.634,-1.441 1.796,-3.97 0.359,-5.607c-1.032,-1.019 -2.56,-1.364 -3.929,-0.887Zm30.37,-10.567l-12.855,-12.795c-1.212,-1.134 -2.984,-1.454 -4.516,-0.815c-1.798,0.791 -4.11,1.869 -5.859,2.684c-1.204,0.717 -2.548,1.166 -3.942,1.318c-0.021,-0 -0.042,0 -0.063,0c-3.674,0 -6.698,-3.023 -6.698,-6.697c0,-2.315 1.2,-4.471 3.167,-5.691c2.792,-1.905 8.89,-5.176 8.89,-5.176c-1.552,-1.631 -3.741,-2.507 -5.99,-2.396c-4.098,0 -12.676,5.631 -12.676,5.631c-1.838,0.96 -4.02,1.018 -5.906,0.156l-6.686,-2.325l0,23.243c0,-0 1.905,0.551 3.595,1.198c0.383,-1.119 1.023,-2.132 1.869,-2.959c2.814,-2.701 7.307,-2.733 10.159,-0.072c0.769,0.794 1.322,1.771 1.606,2.839c1.039,0.324 1.982,0.9 2.743,1.678c0.772,0.808 1.321,1.803 1.594,2.887c2.226,0.691 3.923,2.52 4.444,4.792c1.089,0.31 2.076,0.901 2.864,1.713c1.489,1.558 2.149,3.737 1.773,5.859c-0.376,2.122 0.958,1.078 1.545,1.665c0.553,0.553 1.303,0.864 2.085,0.864c1.617,-0 2.948,-1.331 2.948,-2.949c0,-0.781 -0.311,-1.531 -0.863,-2.084c-0.553,-0.553 2.396,2.971 5.127,1.198c2.396,-1.677 2.025,-3.666 0.887,-4.792c0.726,0.864 1.798,1.363 2.926,1.363c1.056,0 2.066,-0.437 2.789,-1.208c1.06,-1.074 1.128,-2.799 0.155,-3.953c-0.972,-1.154 1.594,2.168 4.793,0.144c2.264,-1.917 1.198,-4.11 -0,-5.26l0.095,-0.06Z" style="fill:#fff;fill-rule:nonzero;"/></svg>