<?xml version="1.0" encoding="UTF-8" standalone="no"?><!DOCTYPE svg PUBLIC "-//W3C//DTD SVG 1.1//EN" "http://www.w3.org/Graphics/SVG/1.1/DTD/svg11.dtd"><svg width="100%" height="100%" viewBox="0 0 27 27" version="1.1" xmlns="http://www.w3.org/2000/svg" xmlns:xlink="http://www.w3.org/1999/xlink" xml:space="preserve" xmlns:serif="http://www.serif.com/" style="fill-rule:evenodd;clip-rule:evenodd;stroke-linejoin:round;stroke-miterlimit:2;"><g><path d="M19.117,15.783c0.326,0.164 0.544,0.245 0.625,0.381c0.082,0.136 0.082,0.789 -0.19,1.551c-0.272,0.762 -1.575,1.457 -2.202,1.551c-0.562,0.084 -1.273,0.119 -2.055,-0.13c-0.473,-0.15 -1.081,-0.351 -1.859,-0.686c-3.273,-1.413 -5.41,-4.707 -5.573,-4.925c-0.163,-0.217 -1.332,-1.768 -1.332,-3.373c0,-0.454 0.068,-0.843 0.171,-1.175c0.263,-0.84 0.757,-1.311 0.971,-1.545c0.299,-0.327 0.652,-0.408 0.87,-0.408c0.217,-0 0.435,0.001 0.625,0.011c0.201,0.01 0.469,-0.076 0.734,0.56c0.272,0.653 0.924,2.258 1.006,2.421c0.081,0.163 0.136,0.354 0.027,0.571c-0.109,0.218 -0.163,0.354 -0.326,0.544c-0.163,0.191 -0.343,0.426 -0.49,0.572c-0.163,0.162 -0.333,0.339 -0.143,0.665c0.191,0.327 0.845,1.395 1.815,2.259c1.246,1.111 2.297,1.456 2.623,1.619c0.327,0.163 0.517,0.136 0.707,-0.082c0.19,-0.217 0.816,-0.952 1.033,-1.278c0.217,-0.327 0.435,-0.272 0.734,-0.164c0.299,0.109 1.903,0.898 2.229,1.061Z" style="fill:#fff;"/><path d="M22.4,3.828c2.465,2.466 3.821,5.746 3.82,9.233c-0.003,7.196 -5.86,13.051 -13.055,13.051l-0.006,-0c-2.184,-0.001 -4.331,-0.549 -6.238,-1.589l-6.921,1.815l1.852,-6.763c-1.142,-1.979 -1.743,-4.224 -1.743,-6.524c0.003,-7.197 5.86,-13.051 13.056,-13.051c3.492,0.002 6.77,1.361 9.235,3.828Zm-9.235,20.08c5.981,-0 10.848,-4.866 10.851,-10.848c0.001,-2.898 -1.127,-5.624 -3.175,-7.675c-2.049,-2.05 -4.774,-3.179 -7.672,-3.181c-5.985,0 -10.853,4.866 -10.855,10.847c-0.001,2.05 0.573,4.046 1.659,5.773l0.258,0.411l-1.096,4.002l4.106,-1.077l0.397,0.236c1.666,0.988 3.575,1.511 5.522,1.512l0.005,-0Z" style="fill:#fff;"/></g></svg>