<?xml version="1.0" encoding="UTF-8" standalone="no"?><!DOCTYPE svg PUBLIC "-//W3C//DTD SVG 1.1//EN" "http://www.w3.org/Graphics/SVG/1.1/DTD/svg11.dtd"><svg width="100%" height="100%" viewBox="0 0 97 97" version="1.1" xmlns="http://www.w3.org/2000/svg" xmlns:xlink="http://www.w3.org/1999/xlink" xml:space="preserve" xmlns:serif="http://www.serif.com/" style="fill-rule:evenodd;clip-rule:evenodd;stroke-linejoin:round;stroke-miterlimit:2;"><circle cx="48.5" cy="48.5" r="48.5" style="fill:#10aaa8;"/><g><path d="M25.353,59.921c1.767,1.366 3.982,2.176 6.387,2.176c5.784,-0 10.472,-4.691 10.472,-10.475c-0,-5.782 -4.688,-10.473 -10.472,-10.473c-5.785,0 -10.472,4.691 -10.472,10.473c-0,2.279 0.724,4.385 1.961,6.102l-7.242,7.242c-0.596,0.596 -0.596,1.562 0,2.161c0.296,0.296 0.691,0.446 1.079,0.446c0.391,-0 0.782,-0.15 1.081,-0.446l6.338,-6.338l0.868,-0.868Zm1.161,-13.554c1.342,-1.335 3.187,-2.16 5.226,-2.16c4.088,-0 7.416,3.327 7.416,7.416c-0,2.038 -0.825,3.884 -2.161,5.226c-1.344,1.353 -3.205,2.191 -5.255,2.191c-4.089,-0 -7.417,-3.328 -7.417,-7.417c-0,-2.051 0.837,-3.911 2.191,-5.256Z" style="fill:#fff;fill-rule:nonzero;"/><path d="M49.452,15.58c-7.533,-0.212 -14.967,2.19 -20.938,6.763c-5.884,4.507 -10.117,10.924 -11.919,18.07c-0.114,0.45 0.159,0.906 0.609,1.02c0.45,0.115 0.907,-0.159 1.02,-0.609c1.711,-6.78 5.728,-12.87 11.313,-17.147c5.665,-4.339 12.721,-6.615 19.867,-6.417c8.345,0.234 16.098,3.704 21.833,9.77c5.735,6.067 8.764,14.003 8.53,22.348c-0.485,17.225 -14.892,30.854 -32.118,30.362c-7.381,-0.208 -14.34,-2.97 -19.82,-7.824l1.112,-1.172c0.249,-0.263 0.079,-0.698 -0.283,-0.722l-3.727,-0.242c-0.267,-0.017 -0.484,0.212 -0.453,0.478l0.439,3.709c0.042,0.36 0.486,0.507 0.736,0.244l1.019,-1.075c5.781,5.139 13.132,8.065 20.93,8.284c0.313,0.009 0.625,0.013 0.937,0.013c17.734,0 32.406,-14.17 32.908,-32.008c0.509,-18.153 -13.843,-33.336 -31.995,-33.845Z" style="fill:#fff;fill-rule:nonzero;"/><path d="M16.671,53.281c0.034,0 0.069,-0.002 0.104,-0.006c0.46,-0.056 0.788,-0.476 0.731,-0.936c-0.19,-1.554 -0.264,-3.141 -0.22,-4.717c0.021,-0.728 0.067,-1.467 0.138,-2.197c0.045,-0.462 -0.293,-0.873 -0.755,-0.918c-0.462,-0.045 -0.873,0.293 -0.918,0.755c-0.074,0.768 -0.123,1.546 -0.145,2.313c-0.047,1.66 0.032,3.331 0.232,4.968c0.052,0.426 0.415,0.738 0.833,0.738Z" style="fill:#fff;fill-rule:nonzero;"/><path d="M48.944,54l4.106,0l-0,-1.901l-5.241,-0c-0.523,-0 -1.278,0.524 -1.278,1.047l-0,19.046c-0,0.523 0.755,0.958 1.278,0.958l10.982,0c0.523,0 0.914,-0.435 0.914,-0.958l-0,-12.487l-1.766,-0l0,9.671c0,0.223 -0.059,0.515 -0.282,0.515l-8.713,-0c-0.223,-0 -0.512,-0.292 -0.512,-0.515l0,-15.096c0,-0.22 0.289,-0.28 0.512,-0.28Zm4.356,17.217c0.332,0 0.601,0.269 0.601,0.601c0,0.332 -0.269,0.601 -0.601,0.601c-0.332,0 -0.601,-0.269 -0.601,-0.601c-0,-0.332 0.269,-0.601 0.601,-0.601Z" style="fill:#fff;fill-rule:nonzero;"/><g><path d="M57.955,24.361c-0.069,-0.026 -0.144,-0.104 -0.222,-0.104l-18.332,-0c-0.089,-0 -0.172,0.082 -0.248,0.114l9.394,5.949l9.408,-5.959Z" style="fill:#fff;fill-rule:nonzero;"/><path d="M70.564,35.258l-12.353,-0l-0,-8.897l-9.231,5.883c-0.15,0.095 -0.291,0.142 -0.462,0.142c-0.17,0 -0.384,-0.047 -0.534,-0.142l-9.331,-5.883l0,10.696c0,0.203 0.136,0.381 0.272,0.501l-0,0.013c0.136,0.101 0.314,0.132 0.476,0.132l15.414,-0l0,19.089c0,0.667 0.689,1.147 1.356,1.147l14.393,0c0.667,0 1.093,-0.48 1.093,-1.147l-0,-20.199c-0,-0.667 -0.426,-1.335 -1.093,-1.335Zm-2.116,13.174l-10.189,-0c-0.338,-0 -0.612,-0.274 -0.612,-0.611c0,-0.338 0.274,-0.611 0.612,-0.611l10.189,-0c0.337,-0 0.611,0.273 0.611,0.611c0,0.337 -0.274,0.611 -0.611,0.611Zm-0,-2.988l-10.189,-0c-0.338,-0 -0.612,-0.274 -0.612,-0.611c0,-0.338 0.274,-0.611 0.612,-0.611l10.189,-0c0.337,-0 0.611,0.273 0.611,0.611c0,0.337 -0.274,0.611 -0.611,0.611Z" style="fill:#fff;fill-rule:nonzero;"/></g></g></svg>