<?xml version="1.0" encoding="UTF-8" standalone="no"?><!DOCTYPE svg PUBLIC "-//W3C//DTD SVG 1.1//EN" "http://www.w3.org/Graphics/SVG/1.1/DTD/svg11.dtd"><svg width="100%" height="100%" viewBox="0 0 97 97" version="1.1" xmlns="http://www.w3.org/2000/svg" xmlns:xlink="http://www.w3.org/1999/xlink" xml:space="preserve" xmlns:serif="http://www.serif.com/" style="fill-rule:evenodd;clip-rule:evenodd;stroke-linecap:round;stroke-linejoin:round;stroke-miterlimit:1.5;"><circle cx="48.5" cy="48.5" r="48.5" style="fill:#10aaa8;"/><g><path d="M32.164,32.313c4.493,1.284 14.127,0.153 14.243,0.141c1.191,-0.119 1.204,0.418 14.948,-0.564l-0.705,-0.423" style="fill:none;stroke:#fff;stroke-width:1.77px;"/><path d="M54.868,19.621c-4.572,1.905 -7.342,0.873 -8.32,3.808c-0.598,1.795 -1.902,1.971 -2.538,3.243c-1.725,3.449 -0.942,3.615 -1.269,11.141" style="fill:none;stroke:#fff;stroke-width:1.77px;"/><path d="M50.074,47.402c-0.605,-6.046 2.404,-19.284 0.282,-29.896" style="fill:none;stroke:#fff;stroke-width:1.77px;"/><path d="M51.766,25.685c1.884,2.826 2.898,1.871 4.936,-0.846c-0.426,0.043 -3.975,0.311 -0.705,1.128" style="fill:none;stroke:#fff;stroke-width:1.77px;"/><path d="M59.663,22.301c2.983,0.298 4.137,1.881 4.372,0.705c0.949,-4.745 1.47,-4.53 1.551,-4.936" style="fill:none;stroke:#fff;stroke-width:1.77px;"/><path d="M39.074,43.736c0.25,0.125 0.611,0.305 2.398,2.538c1.123,1.404 1.279,1.189 2.397,2.679" style="fill:none;stroke:#fff;stroke-width:1.77px;"/><path d="M54.586,49.941c0.227,0.226 0.162,0.644 0.282,0.282c0.022,-0.065 0.041,-1.33 -0.846,-0" style="fill:none;stroke:#fff;stroke-width:1.77px;"/><path d="M49.228,50.646c-0.274,1.094 0.846,1.295 0.987,1.48c-0.235,-0.587 -0.47,-1.175 -0.705,-1.762" style="fill:none;stroke:#fff;stroke-width:1.77px;"/><path d="M47.112,51.633c-0.785,0.157 -0.852,0.179 -0.987,0.987" style="fill:none;stroke:#fff;stroke-width:1.77px;"/><path d="M43.305,54.171c-0.141,0.235 -0.282,0.47 -0.423,0.705" style="fill:none;stroke:#fff;stroke-width:1.77px;"/><path d="M42.741,57.556l-0,1.974" style="fill:none;stroke:#fff;stroke-width:1.77px;"/><path d="M42.741,63.197l-0,1.128" style="fill:none;stroke:#fff;stroke-width:1.77px;"/><path d="M49.51,66.017c-0.842,-3.366 0.705,-3.354 0.705,-13.538" style="fill:none;stroke:#fff;stroke-width:1.77px;"/><path d="M54.868,62.068l-8.038,0" style="fill:none;stroke:#fff;stroke-width:1.77px;"/><path d="M49.651,74.055l-0,8.038" style="fill:none;stroke:#fff;stroke-width:1.77px;"/><path d="M57.407,81.247c-0.314,-0.314 -1.739,-1.739 -2.539,-4.936c-0.328,-1.311 -4.913,-1.53 -5.358,-1.551l-30.038,0" style="fill:none;stroke:#fff;stroke-width:1.77px;"/><path d="M34.279,82.657l0,-35.96" style="fill:none;stroke:#fff;stroke-width:1.77px;"/><path d="M36.395,61.504c-11.272,0 -12.503,0.165 -17.205,-0.423" style="fill:none;stroke:#fff;stroke-width:1.77px;"/><path d="M19.613,51.492l0,30.601" style="fill:none;stroke:#fff;stroke-width:1.77px;"/><path d="M27.652,66.44c0.169,2.032 1.098,2.991 -0.141,4.231" style="fill:none;stroke:#fff;stroke-width:1.77px;"/><path d="M28.075,58.12c0.618,-1.857 0.467,-2.128 2.397,-2.68" style="fill:none;stroke:#fff;stroke-width:1.77px;"/><path d="M59.522,44.159c-0.42,-0.21 -1.613,1.717 -1.692,2.115" style="fill:none;stroke:#fff;stroke-width:1.77px;"/><path d="M58.394,50.646c0.336,1.007 1.224,0.373 1.41,-0" style="fill:none;stroke:#fff;stroke-width:1.77px;"/><path d="M55.291,56.428c-0.062,-0.042 0.001,-0 -0.846,-0.424" style="fill:none;stroke:#fff;stroke-width:1.77px;"/><path d="M77.855,44.864l-0,8.038" style="fill:none;stroke:#fff;stroke-width:1.77px;"/><path d="M83.072,44.159l-23.268,-0" style="fill:none;stroke:#fff;stroke-width:1.77px;"/><path d="M77.573,40.633l-0,-1.551" style="fill:none;stroke:#fff;stroke-width:1.77px;"/><path d="M77.106,80.895c0.539,-2.424 1.008,-2.24 1.41,-4.653" style="fill:none;stroke:#fff;stroke-width:1.77px;"/></g><path d="M54.739,63.453l0,11.584l5.313,-0l-0,-6.619l5.312,-0l0,6.619l10.625,-0l0,-11.584l-10.625,-8.273l-10.625,8.273Zm17.708,-11.583l-4.25,3.31l9.563,7.446l-0,9.101l5.312,0l0,-11.583l-10.625,-8.274Z" style="fill:#fff;fill-rule:nonzero;"/><path d="M24.625,46.978c-0.832,0 -1.652,-0.139 -2.433,-0.398l0,5.29l4.866,0l-0,-5.29c-0.781,0.258 -1.601,0.398 -2.433,0.398Z" style="fill:#fff;fill-rule:nonzero;stroke:#fff;stroke-width:1px;stroke-linecap:butt;stroke-miterlimit:2;"/><path d="M34.648,32.681c0.221,-0.596 0.348,-1.238 0.348,-1.911c0,-2.583 -1.783,-4.746 -4.186,-5.337c-0.663,-2.806 -3.177,-4.896 -6.185,-4.896c-3.008,-0 -5.522,2.09 -6.185,4.896c-2.402,0.591 -4.186,2.754 -4.186,5.337c-0,0.673 0.126,1.314 0.347,1.911c-1.575,1.157 -2.601,3.018 -2.601,5.123c0,3.513 2.847,6.361 6.361,6.361c0.89,-0 1.737,-0.184 2.506,-0.514c0.779,0.661 1.735,1.118 2.785,1.296l-0,-3.058l-4.409,-4.41c-0.38,-0.379 -0.38,-0.995 0,-1.375c0.38,-0.381 0.996,-0.381 1.375,0l3.034,3.032l-0,-3.34l-3.024,-3.023c-0.282,-0.283 -0.282,-0.74 0,-1.023c0.282,-0.282 0.74,-0.282 1.021,0l2.003,2.002l-0,-3.667c-0,-0.538 0.436,-0.973 0.973,-0.973c0.537,0 0.973,0.435 0.973,0.973l0,3.667l2.003,-2.002c0.281,-0.282 0.739,-0.282 1.021,0c0.282,0.283 0.282,0.74 0,1.023l-3.023,3.023l-0,3.34l3.033,-3.032c0.379,-0.381 0.995,-0.381 1.375,0c0.38,0.38 0.38,0.996 -0,1.375l-4.408,4.41l-0,3.058c1.05,-0.178 2.005,-0.635 2.784,-1.295c0.769,0.329 1.615,0.513 2.505,0.513c3.515,0 6.362,-2.848 6.362,-6.361c-0,-2.105 -1.026,-3.966 -2.602,-5.123Z" style="fill:#fff;fill-rule:nonzero;stroke:#fff;stroke-width:1px;stroke-linecap:butt;stroke-miterlimit:2;"/></svg>