<?xml version="1.0" encoding="UTF-8" standalone="no"?>
<!DOCTYPE svg PUBLIC "-//W3C//DTD SVG 1.1//EN" "http://www.w3.org/Graphics/SVG/1.1/DTD/svg11.dtd">
<svg width="100%" height="100%" viewBox="0 0 800 560" version="1.1" xmlns="http://www.w3.org/2000/svg" xmlns:xlink="http://www.w3.org/1999/xlink" xml:space="preserve" xmlns:serif="http://www.serif.com/" style="fill-rule:evenodd;clip-rule:evenodd;stroke-linejoin:round;stroke-miterlimit:2;">
    <g transform="matrix(1,0,0,1,1.77791e-06,-120)">
        <g id="icons" transform="matrix(1,0,0,1,-9760,-291280)">
            <g id="Page-1">
                <g id="Dribbble-Light-Preview">
                    <g id="icons1" serif:id="icons">
                        <path id="youtube---168-" serif:id="youtube-[#168]" d="M10079.5,291783L10079.5,291559C10159.2,291596 10220.9,291633 10293.9,291672C10233.7,291705 10159.2,291743 10079.5,291783M10523.6,291447C10509.9,291429 10486.5,291415 10461.5,291410C10388.2,291397 9930.84,291396 9857.57,291410C9837.56,291414 9819.75,291423 9804.45,291437C9739.99,291497 9760.19,291818 9775.73,291870C9782.26,291893 9790.71,291909 9801.35,291919C9815.05,291934 9833.82,291943 9855.37,291948C9915.74,291960 10226.7,291967 10460.2,291949C10481.8,291946 10500.8,291936 10515.8,291921C10575.4,291861 10571.4,291522 10523.6,291447"/>
                    </g>
                </g>
            </g>
        </g>
    </g>
</svg>
