<?xml version="1.0" encoding="UTF-8" standalone="no"?><!DOCTYPE svg PUBLIC "-//W3C//DTD SVG 1.1//EN" "http://www.w3.org/Graphics/SVG/1.1/DTD/svg11.dtd"><svg width="100%" height="100%" viewBox="0 0 409 330" version="1.1" xmlns="http://www.w3.org/2000/svg" xmlns:xlink="http://www.w3.org/1999/xlink" xml:space="preserve" xmlns:serif="http://www.serif.com/" style="fill-rule:evenodd;clip-rule:evenodd;stroke-linejoin:round;stroke-miterlimit:2;"><g><g><g><g><path d="M391.628,201.412l-108.677,108.676c-21.165,21.192 -55.669,21.192 -76.834,0c-10.27,-10.242 -15.921,-23.908 -15.921,-38.417c-0,-14.508 5.651,-28.174 15.921,-38.417l70.259,-70.259l-70.259,-70.26c-10.27,-10.27 -15.921,-23.909 -15.921,-38.417c-0,-14.508 5.651,-28.147 15.921,-38.417c10.27,-10.27 23.909,-15.921 38.417,-15.921c14.508,-0 28.147,5.651 38.417,15.921l108.677,108.676c10.27,10.243 15.921,23.909 15.921,38.418c-0,14.508 -5.651,28.174 -15.921,38.417Zm-19.209,-57.626l-108.676,-108.676c-10.297,-10.27 -28.12,-10.27 -38.418,-0c-10.595,10.595 -10.595,27.821 0,38.417l89.468,89.468l-89.468,89.468c-5.134,5.135 -7.96,11.954 -7.96,19.208c-0,7.254 2.826,14.074 7.96,19.209c5.298,5.298 12.254,7.96 19.209,7.96c6.955,0 13.911,-2.662 19.209,-7.933l108.676,-108.677c5.135,-5.162 7.961,-11.981 7.961,-19.235c-0,-7.255 -2.826,-14.074 -7.961,-19.209Z" style="fill:#10aaa8;fill-rule:nonzero;"/></g><g><path d="M201.444,201.412l-108.677,108.676c-21.165,21.192 -55.669,21.192 -76.834,0c-10.27,-10.242 -15.921,-23.908 -15.921,-38.417c-0,-14.508 5.651,-28.174 15.921,-38.417l70.259,-70.259l-70.259,-70.26c-10.27,-10.27 -15.921,-23.909 -15.921,-38.417c-0,-14.508 5.651,-28.147 15.921,-38.417c10.27,-10.27 23.909,-15.921 38.417,-15.921c14.508,-0 28.147,5.651 38.417,15.921l108.677,108.676c10.27,10.243 15.921,23.909 15.921,38.418c-0,14.508 -5.651,28.174 -15.921,38.417Zm-19.209,-57.626l-108.676,-108.676c-10.297,-10.27 -28.12,-10.27 -38.418,-0c-10.595,10.595 -10.595,27.821 0,38.417l89.468,89.468l-89.468,89.468c-5.134,5.135 -7.96,11.954 -7.96,19.208c-0,7.254 2.826,14.074 7.96,19.209c5.298,5.298 12.254,7.96 19.209,7.96c6.955,0 13.911,-2.662 19.209,-7.933l108.676,-108.677c5.135,-5.162 7.961,-11.981 7.961,-19.235c-0,-7.255 -2.826,-14.074 -7.961,-19.209Z" style="fill:#10aaa8;fill-rule:nonzero;"/></g></g></g></g></svg>