<?xml version="1.0" encoding="UTF-8" standalone="no"?><!DOCTYPE svg PUBLIC "-//W3C//DTD SVG 1.1//EN" "http://www.w3.org/Graphics/SVG/1.1/DTD/svg11.dtd"><svg width="100%" height="100%" viewBox="0 0 97 97" version="1.1" xmlns="http://www.w3.org/2000/svg" xmlns:xlink="http://www.w3.org/1999/xlink" xml:space="preserve" xmlns:serif="http://www.serif.com/" style="fill-rule:evenodd;clip-rule:evenodd;stroke-linejoin:round;stroke-miterlimit:2;"><circle cx="48.5" cy="48.5" r="48.5" style="fill:#10aaa8;"/><g><path d="M39.353,71.394l2.728,-0c-0.003,1.376 0.698,2.589 2.121,3.636c2.172,1.093 4.384,1.571 6.666,0.909c2.604,-0.564 3.941,-2.033 4.242,-4.242l2.424,-0l0,-6.364l-1.818,-0.303l-2.424,-2.727c-3.137,-1.089 -6.998,-1.298 -9.696,-0.303l-1.515,2.424l-2.728,0.606l0,6.364Z" style="fill:#fff;"/><circle cx="48.444" cy="68.678" r="2.11" style="fill:#10aaa8;"/><path d="M68.898,49.434c-0.734,1.884 -0.534,3.618 0.909,5.151c1.148,0.691 2.255,0.736 3.333,0.303l0.909,-1.818l1.515,-1.515c0.96,-1.414 0.862,-2.828 0.909,-4.242l-7.575,2.121Z" style="fill:#fff;"/><path d="M15.264,44.585c1.111,0.713 8.939,0.303 8.939,0.303c1.792,-0.262 2.608,-1.201 2.575,-2.727l0,-3.03l-11.211,-0.303l-0.303,5.757Z" style="fill:#fff;"/><path d="M19.809,38.525c-0.515,-1.324 -0.42,-3.332 -0.303,-6.06c1.028,-1.202 2.467,-0.837 3.636,-0l0,6.06l-3.333,-0.248" style="fill:#fff;"/><path d="M24.657,46.403c1.143,1.332 3.557,2.285 6.667,3.031l5.757,1.212c1.509,0.44 2.816,0.853 3.939,1.818l1.515,0.909l12.121,-0l3.939,-2.424l6.06,-1.212l3.334,-1.212l9.09,-1.515c-4.299,-0.91 -6.503,-1.516 -5.454,-2.425c3.333,0.897 6.666,0.786 9.999,0c0.297,-1.818 0.307,-3.636 0,-5.454l-3.939,0c0.584,-2.121 0.465,-5.151 0.303,-7.272l-3.333,0.303c-0.239,1.781 -0.217,3.823 0,6.06c-0.722,0.995 -2.25,1.184 -4.242,0.909l-0,3.939l-11.212,-0.303c-6.363,-3.316 -13.939,-2.983 -20.605,0l-11.212,0.303c-0.105,1.915 -0.862,3.178 -2.727,3.333Z" style="fill:#fff;"/><circle cx="44.505" cy="46.555" r="1.061" style="fill:#fff;"/><circle cx="48.519" cy="46.555" r="1.061" style="fill:#fff;"/><circle cx="52.973" cy="46.555" r="1.061" style="fill:#fff;"/><path d="M72.534,32.768l-10.606,0.303c-3.919,1.212 -2.46,2.121 0,3.333l10.606,0.303l-0,-3.939Z" style="fill:#fff;"/><path d="M17.504,32.567l-10.606,0.303c-3.919,1.212 -2.46,2.121 -0,3.333l10.606,0.303l-0,-3.939Z" style="fill:#fff;"/><path d="M79.505,36.707l10.605,-0.303c3.907,-1.949 2.451,-2.709 0,-3.333l-10.605,-0.303l-0,3.939Z" style="fill:#fff;"/><path d="M24.876,36.707l10.606,-0.303c3.906,-1.949 2.45,-2.709 -0,-3.333l-10.606,-0.303l0,3.939Z" style="fill:#fff;"/><path d="M36.475,52.161l3.333,1.818c-5.151,4.321 -5.751,11.842 -5.454,13.03c0.244,0.98 -3.06,1.362 -3.03,0.303c0.06,-2.192 0.563,-10.353 5.151,-15.151Z" style="fill:#fff;"/><path d="M60.868,52.161l-3.333,1.818c5.151,4.321 5.751,11.842 5.454,13.03c-0.244,0.98 3.06,1.362 3.031,0.303c-0.061,-2.192 -0.564,-10.353 -5.152,-15.151Z" style="fill:#fff;"/><rect x="42.535" y="55.494" width="12.424" height="3.636" style="fill:#fff;"/><path d="M27.687,55.191l1.515,-1.818l-0.606,-4.242c-2.163,0.022 -4.288,-0.525 -6.363,-1.818l-3.03,-0c0.042,0.933 0.388,1.753 0.606,2.424l3.03,2.727c0.527,1.392 1.243,2.173 2.121,2.424c0.909,0.38 1.818,0.449 2.727,0.303Z" style="fill:#fff;"/></g></svg>