<?xml version="1.0" encoding="UTF-8" standalone="no"?>
<!DOCTYPE svg PUBLIC "-//W3C//DTD SVG 1.1//EN" "http://www.w3.org/Graphics/SVG/1.1/DTD/svg11.dtd">
<svg width="100%" height="100%" viewBox="0 0 652 750" version="1.1" xmlns="http://www.w3.org/2000/svg" xmlns:xlink="http://www.w3.org/1999/xlink" xml:space="preserve" xmlns:serif="http://www.serif.com/" style="fill-rule:evenodd;clip-rule:evenodd;stroke-linejoin:round;stroke-miterlimit:2;">
    <g transform="matrix(1,0,0,1,-74.2552,-25.1)">
        <path d="M416.4,25.725C457.325,25.1 497.95,25.425 538.55,25.1C539.9,75.875 560.5,121.575 593.275,155.425L593.225,155.375C628.5,187.15 674.4,207.75 725,211.25L725.7,211.3L725.7,337.2C677.9,336 632.95,324.975 592.425,306.025L594.475,306.875C574.875,297.45 558.3,287.775 542.55,276.975L543.85,277.825C543.55,369.05 544.15,460.275 543.225,551.175C540.65,597.5 525.25,639.75 500.55,675.025L501.05,674.25C459.75,733.4 392.85,772.225 316.775,774.525L316.425,774.525C313.35,774.675 309.725,774.75 306.075,774.75C262.825,774.75 222.4,762.7 187.95,741.775L188.95,742.35C126.25,704.625 83,640.075 75,565L74.9,563.975C74.275,548.35 73.975,532.725 74.6,517.425C86.85,397.95 186.95,305.525 308.625,305.525C322.3,305.525 335.7,306.7 348.725,308.925L347.325,308.725C347.95,354.95 346.075,401.2 346.075,447.425C335.5,443.6 323.3,441.375 310.575,441.375C263.875,441.375 224.15,471.225 209.45,512.9L209.225,513.65C205.9,524.325 203.975,536.6 203.975,549.3C203.975,554.45 204.3,559.55 204.9,564.55L204.85,563.95C213.15,615.1 257,653.7 309.875,653.7C311.4,653.7 312.9,653.675 314.4,653.6L314.175,653.6C350.75,652.5 382.5,632.825 400.45,603.75L400.7,603.3C407.375,594 411.95,582.75 413.475,570.525L413.5,570.175C416.625,514.25 415.375,458.65 415.675,402.725C415.975,276.825 415.375,151.225 416.3,25.65L416.4,25.725Z" style="fill-rule:nonzero;"/>
    </g>
</svg>
