<?xml version="1.0" encoding="UTF-8" standalone="no"?>
<!DOCTYPE svg PUBLIC "-//W3C//DTD SVG 1.1//EN" "http://www.w3.org/Graphics/SVG/1.1/DTD/svg11.dtd">
<svg width="100%" height="100%" viewBox="0 0 801 800" version="1.1" xmlns="http://www.w3.org/2000/svg" xmlns:xlink="http://www.w3.org/1999/xlink" xml:space="preserve" xmlns:serif="http://www.serif.com/" style="fill-rule:evenodd;clip-rule:evenodd;stroke-linejoin:round;stroke-miterlimit:2;">
    <g transform="matrix(1,0,0,1,8.39915e-06,-0.000116552)">
        <g id="icons" transform="matrix(1,0,0,1,-11360,-291160)">
            <g id="Page-1">
                <g id="Dribbble-Light-Preview">
                    <g id="icons1" serif:id="icons">
                        <path id="instagram---167-" serif:id="instagram-[#167]" d="M11594.8,291165C11529.7,291168 11473.2,291184 11427.7,291229C11381.9,291275 11366.2,291331 11363.3,291396C11361.4,291436 11350.7,291740 11381.8,291820C11402.7,291873 11443.9,291915 11498.2,291936C11523.5,291946 11552.4,291952 11594.8,291954C11949.2,291970 12080.6,291961 12136,291820C12145.8,291794 12152.6,291765 12154.5,291723C12170.7,291368 12151.8,291291 12090.1,291229C12041.1,291180 11983.4,291147 11594.8,291165M11598.1,291883C11559.2,291881 11538.2,291874 11524.1,291869C11488.8,291855 11462.2,291829 11448.6,291794C11425,291733 11432.8,291446 11434.9,291399C11437,291353 11446.2,291312 11478.4,291280C11518.2,291240 11569.6,291221 11919.7,291236C11965.4,291238 12007.2,291248 12039.4,291280C12079.2,291319 12099,291371 12082.9,291720C12081.1,291759 12074.6,291780 12069.2,291794C12033.2,291886 11950.3,291899 11598.1,291883M11923.6,291348C11923.6,291374 11945,291395 11971.3,291395C11997.7,291395 12019.1,291374 12019.1,291348C12019.1,291321 11997.7,291300 11971.3,291300C11945,291300 11923.6,291321 11923.6,291348M11554.5,291560C11554.5,291672 11646,291763 11758.9,291763C11871.8,291763 11963.3,291672 11963.3,291560C11963.3,291447 11871.8,291356 11758.9,291356C11646,291356 11554.5,291447 11554.5,291560M11626.2,291560C11626.2,291486 11685.6,291427 11758.9,291427C11832.2,291427 11891.5,291486 11891.5,291560C11891.5,291633 11832.2,291692 11758.9,291692C11685.6,291692 11626.2,291633 11626.2,291560"/>
                    </g>
                </g>
            </g>
        </g>
    </g>
</svg>
