<?xml version="1.0" encoding="UTF-8" standalone="no"?>
<!DOCTYPE svg PUBLIC "-//W3C//DTD SVG 1.1//EN" "http://www.w3.org/Graphics/SVG/1.1/DTD/svg11.dtd">
<svg width="100%" height="100%" viewBox="0 0 521 521" version="1.1" xmlns="http://www.w3.org/2000/svg" xmlns:xlink="http://www.w3.org/1999/xlink" xml:space="preserve" xmlns:serif="http://www.serif.com/" style="fill-rule:evenodd;clip-rule:evenodd;stroke-linejoin:round;stroke-miterlimit:2;">
    <g transform="matrix(1,0,0,1,-137.5,-139.85)">
        <path d="M137.5,205.475L137.5,594.55C137.5,631.275 166.4,660.175 203.125,660.175L592.2,660.175C610.175,660.175 627.35,651.575 638.3,640.65C650.025,628.925 657.825,614.075 657.825,594.55L657.825,205.475C657.825,168.75 628.925,139.85 592.2,139.85L203.125,139.85C183.6,139.85 168.75,147.675 157.025,159.375C146.075,170.325 137.5,187.5 137.5,205.475ZM207.825,257.025C207.825,232.025 228.15,210.15 253.15,210.15C278.925,210.15 300.025,232.025 300.025,257.025C300.025,282.8 278.925,303.125 253.15,303.125C228.15,303.125 207.825,282.8 207.825,257.025ZM333.6,578.125L333.6,339.85C333.6,334.375 339.075,329.7 342.975,329.7L409.375,329.7C418.75,329.7 418.75,340.65 418.75,347.675C437.5,328.925 461.725,324.225 486.725,324.225C547.675,324.225 586.725,353.125 586.725,417.2L586.725,578.15C586.725,583.625 582.025,588.3 577.35,588.3L508.6,588.3C503.125,588.3 499.225,582.825 499.225,578.15L499.225,432.825C499.225,408.6 492.2,395.325 464.85,395.325C430.475,395.325 421.875,417.975 421.875,448.45L421.875,578.15C421.875,583.625 416.4,588.3 410.925,588.3L342.95,588.3C339.05,588.3 333.575,582.825 333.575,578.15L333.6,578.125ZM209.375,578.125L209.375,339.85C209.375,334.375 214.85,329.7 218.75,329.7L286.725,329.7C292.975,329.7 296.875,333.6 296.875,339.85L296.875,578.125C296.875,583.6 292.175,588.275 286.725,588.275L218.75,588.275C214.05,588.275 209.375,582.8 209.375,578.125Z" style="fill-rule:nonzero;"/>
    </g>
</svg>
