<?xml version="1.0" encoding="UTF-8" standalone="no"?>
<!DOCTYPE svg PUBLIC "-//W3C//DTD SVG 1.1//EN" "http://www.w3.org/Graphics/SVG/1.1/DTD/svg11.dtd">
<svg width="100%" height="100%" viewBox="0 0 561 561" version="1.1" xmlns="http://www.w3.org/2000/svg" xmlns:xlink="http://www.w3.org/1999/xlink" xml:space="preserve" xmlns:serif="http://www.serif.com/" style="fill-rule:evenodd;clip-rule:evenodd;stroke-linejoin:round;stroke-miterlimit:2;">
    <g transform="matrix(1,0,0,1,-0.05,-119.55)">
        <path d="M232.825,593.75L228.925,607.825C223.45,630.475 210.95,651.575 200.025,668.775C226.6,675.8 252.375,679.725 279.725,679.725C357.075,679.725 426.6,649.25 478.175,598.475C528.95,547.7 560.2,477.375 560.2,400.025C560.2,322.675 528.95,252.375 478.175,201.575C426.6,150.8 357.075,119.55 279.725,119.55C202.375,119.55 132.85,150.8 82.075,201.575C30.5,252.35 0.05,322.675 0.05,400.025C0.05,457.85 16.45,510.975 46.925,554.725C76.625,598.475 118.8,634.425 167.25,655.5C166.475,635.975 168.025,614.1 172.725,593C173.5,586.75 175.85,577.375 178.975,564.875C181.325,553.925 185.225,538.3 189.925,518C194.625,498.475 200.875,472.675 207.9,439.875C205.55,435.175 204,430.5 203.2,425.025C200.075,414.875 198.5,405.5 199.3,395.325C199.3,354.7 222.75,322.675 254,322.675C279.775,322.675 291.5,342.2 291.5,364.875C291.5,377.375 287.6,392.225 282.125,410.2C275.875,428.95 270.4,445.35 266.5,464.1C262.6,478.95 266.5,492.225 275.1,502.375C283.7,511.75 296.975,518 311.05,518C337.625,518 359.5,501.6 375.125,474.25C390.75,446.9 400.125,409.4 400.125,368.775C400.125,338.3 389.975,312.525 369.65,293C349.325,273.475 320.425,262.525 282.925,262.525C240.725,262.525 206.35,277.375 182.15,302.375C157.95,327.375 144.65,360.975 144.65,396.9C144.65,419.55 151.675,436.75 164.175,450.8C168.075,457.05 169.65,459.4 168.075,466.425C167.3,468.775 165.725,472.675 164.95,477.375C162.6,487.525 161.825,500.825 147.75,496.125C108.675,480.5 90.725,436.75 90.725,388.3C90.725,348.45 107.125,305.475 140.725,271.9C174.325,237.525 225.1,214.075 290.725,214.075C344.625,214.075 389.175,232.825 420.425,263.3C451.675,293 468.075,333.625 468.075,374.25C468.075,429.725 453.225,477.375 426.675,511.75C400.125,546.125 361.825,566.45 317.3,566.45C286.825,566.45 258.7,550.825 248.55,531.3C243.85,548.5 240.725,561 238.4,570.375C236.05,580.525 234.5,589.125 232.925,593.825L232.825,593.75Z" style="fill-rule:nonzero;"/>
    </g>
</svg>
