<?xml version="1.0" encoding="UTF-8" standalone="no"?><!DOCTYPE svg PUBLIC "-//W3C//DTD SVG 1.1//EN" "http://www.w3.org/Graphics/SVG/1.1/DTD/svg11.dtd"><svg width="100%" height="100%" viewBox="0 0 97 97" version="1.1" xmlns="http://www.w3.org/2000/svg" xmlns:xlink="http://www.w3.org/1999/xlink" xml:space="preserve" xmlns:serif="http://www.serif.com/" style="fill-rule:evenodd;clip-rule:evenodd;stroke-linejoin:round;stroke-miterlimit:2;"><circle cx="48.5" cy="48.5" r="48.5" style="fill:#10aaa8;"/><path d="M67.538,25.791c-8.136,2.01 -10.963,8.601 -10.493,11.355c0.149,-0.085 0.295,-0.166 0.446,-0.255c0.715,-0.413 1.493,-0.803 2.3,-1.206c0.803,-0.405 1.667,-0.781 2.538,-1.162c0.437,-0.192 0.896,-0.361 1.35,-0.535l0.684,-0.262c0.295,-0.109 0.477,-0.154 0.72,-0.234l1.372,-0.43c0.477,-0.128 0.95,-0.253 1.419,-0.378c0.948,-0.246 1.864,-0.464 2.756,-0.637c1.782,-0.381 3.457,-0.659 4.898,-0.869c2.886,-0.413 4.852,-0.492 4.852,-0.492c0,0 -0.449,0.182 -1.237,0.498c-0.791,0.31 -1.919,0.72 -3.278,1.212c-0.684,0.234 -1.419,0.488 -2.197,0.757c-0.78,0.261 -1.603,0.534 -2.453,0.817c-0.841,0.279 -1.705,0.57 -2.589,0.867c-0.864,0.275 -1.766,0.599 -2.67,0.926c-0.843,0.297 -1.719,0.692 -2.578,1.012c-0.853,0.365 -2.315,0.844 -3.142,1.176c-0.997,0.394 -1.628,0.607 -2.262,0.922c-7.097,3.897 -10.241,10.795 -12.159,18.095c-0.341,-6.857 -1.87,-13.51 -7.131,-18.416c0.005,-0.003 0.012,-0.005 0.017,-0.009c-0.712,-0.628 -1.452,-1.303 -2.214,-2.026c-0.626,-0.607 -1.288,-1.21 -1.931,-1.854c-0.661,-0.605 -1.31,-1.283 -1.973,-1.862c-0.706,-0.627 -1.403,-1.249 -2.092,-1.816c-0.695,-0.588 -1.375,-1.167 -2.039,-1.73c-0.672,-0.566 -1.321,-1.113 -1.935,-1.635c-0.609,-0.528 -1.19,-1.028 -1.721,-1.49c-1.058,-0.939 -1.938,-1.726 -2.541,-2.297c-0.597,-0.576 -0.938,-0.905 -0.938,-0.905c0,-0 1.784,0.779 4.284,2.197c1.246,0.713 2.68,1.57 4.175,2.562c0.753,0.483 1.512,1.012 2.288,1.579c0.382,0.286 0.77,0.571 1.155,0.858l1.094,0.89c0.193,0.163 0.343,0.267 0.57,0.475l0.528,0.489c0.352,0.325 0.705,0.647 1.03,0.98c0.656,0.663 1.297,1.323 1.877,1.985c0.582,0.662 1.142,1.303 1.635,1.941c0.105,0.137 0.203,0.262 0.307,0.395c1.556,-2.376 1.617,-9.484 -5.09,-14.266c-7.303,-5.202 -17.48,-2.868 -21.741,-4.792c4.303,6.193 3.477,10.328 10.705,17.125c4.831,4.547 9.342,4.829 12.381,4.038c6.181,5.598 7.146,14.133 7.149,22.301c-0.632,-0.482 -1.4,-0.861 -2.287,-0.861c-2.502,0 -4.324,1.324 -5.197,3.213c-5.506,-1.764 -9.164,2.335 -9.481,5.788c-2.62,-0.917 -5.944,1.918 -5.944,4.382c0,2.433 2.044,4.403 4.604,4.505l40.535,0.067c-0,0 4.319,-2.191 4.319,-4.573c-0,-2.497 -2.152,-4.525 -4.806,-4.525c-0.368,0 -0.72,0.046 -1.06,0.119c0.023,-0.175 -0.464,-7.855 -7.555,-4.77c-0.551,-2.403 -1.275,-4.206 -5.535,-4.206c-2.099,0 -3.52,0.717 -4.43,1.446c1.775,-8.494 4.517,-17.367 12.51,-21.757c0.088,-0.046 0.133,-0.109 0.195,-0.165c2.471,1.865 6.79,3.305 13.2,0.801c9.436,-3.688 10.349,-7.805 16.839,-11.983c-4.715,0.249 -13.174,-5.562 -22.033,-3.375Zm-22.09,37.909l0.265,-0.25c-0.134,0.195 -0.216,0.337 -0.216,0.337c0,-0 -0.027,-0.049 -0.049,-0.087Z" style="fill:#fff;fill-rule:nonzero;"/></svg>